# xmcd
#
# Track frame offsets:
#	150
#	15297
#	27420
#	39972
#	55157
#	68977
#	84397
#	100050
#	115155
#	127630
#	139197
#	151877
#	164987
#	180380
#
# Disc length: 2660
#
# Revision: 1
# Processed by: cddbd v1.5.1PL0 Copyright (c) Steve Scherf et al.
# Submitted via: VisiTrax 2.9.5.180 - For more info visit www.synapsa.com
# Normalized: r0:DSETVAR1
#
DISCID=a80a620e
DTITLE=Various Artist - Mr. Music Country 06-95
DYEAR=1995
DGENRE=
TTITLE0=Dolly Parton - My Tennessee mountain home
TTITLE1=Ken Mellons - Jukebox junkie
TTITLE2=Gary Stewart - I'm a Texan
TTITLE3=James House - A real good way to wind up lonesome
TTITLE4=Becky Hobbs - dreamin' of a brand new day
TTITLE5=Randy Howard - The last rebel yell
TTITLE6=Rosie Flores - Honky tonk moon
TTITLE7=Collin Raye - Man of my word
TTITLE8=Wade Hayes - Someone had to teach you
TTITLE9=Doug Stone - Look where she is today
TTITLE10=Robin and Linda Williams - I see no future (in looking in the past)
TTITLE11=Luke McDaniel - It was me
TTITLE12=Bobbie Cryner - Daddy laid the blues on me
TTITLE13=Darrell McCall - After Texas
EXTD=
EXTT0=
EXTT1=
EXTT2=
EXTT3=
EXTT4=
EXTT5=
EXTT6=
EXTT7=
EXTT8=
EXTT9=
EXTT10=
EXTT11=
EXTT12=
EXTT13=
PLAYORDER=
